<?xml version="1.0" standalone="no"?>
<!DOCTYPE svg PUBLIC "-//W3C//DTD SVG 20010904//EN"
 "http://www.w3.org/TR/2001/REC-SVG-20010904/DTD/svg10.dtd">
<svg version="1.0" xmlns="http://www.w3.org/2000/svg"
 width="224.000000pt" height="225.000000pt" viewBox="0 0 224.000000 225.000000"
 preserveAspectRatio="xMidYMid meet">

<g transform="translate(0.000000,225.000000) scale(0.100000,-0.100000)"
fill="#000000" stroke="none">
<path d="M946 2240 c-76 -14 -175 -67 -233 -127 -126 -129 -197 -330 -238
-683 -10 -90 -22 -149 -36 -178 -39 -81 -131 -126 -279 -139 l-75 -6 60 -28
c81 -39 154 -53 201 -40 24 7 34 7 27 0 -14 -14 -119 -29 -155 -22 -30 6 -30
6 -23 -28 9 -48 54 -109 95 -130 20 -11 55 -19 82 -19 51 0 59 -11 34 -45 -8
-12 -31 -21 -61 -24 l-48 -6 41 -40 c23 -22 67 -54 98 -71 l56 -32 -130 -41
c-117 -37 -136 -46 -184 -90 -66 -60 -95 -113 -143 -259 l-37 -114 38 -40 c22
-22 56 -48 76 -59 36 -18 71 -19 1005 -19 935 0 969 1 1008 20 22 10 58 35 79
54 l40 34 -44 104 c-75 178 -145 285 -213 327 -18 10 -99 38 -182 61 -82 22
-156 43 -164 46 -11 3 -8 11 11 32 59 64 107 184 129 325 26 172 -12 545 -76
742 -84 255 -232 415 -445 479 -64 20 -244 29 -314 16z m320 -348 c120 -79
206 -193 239 -317 24 -94 20 -276 -10 -420 -26 -127 -21 -117 -104 -187 -19
-16 -21 -22 -10 -30 11 -7 9 -8 -6 -6 -11 1 -27 -2 -35 -7 -8 -6 -45 -9 -82
-9 -71 1 -77 -6 -26 -32 l30 -15 -33 -24 c-17 -14 -61 -34 -97 -46 -63 -21
-67 -21 -117 -5 -95 30 -303 212 -317 279 -16 71 -37 248 -44 357 -8 133 -5
139 71 148 32 3 52 0 72 -13 31 -20 30 -20 79 60 l23 40 1 -77 c0 -43 3 -78 8
-78 4 0 69 95 146 210 76 116 142 210 146 210 4 0 33 -17 66 -38z m-356 -1066
c27 -19 73 -42 101 -51 49 -17 52 -16 120 5 38 13 87 35 109 51 37 27 41 28
99 18 l61 -11 0 -56 c0 -52 -28 -160 -125 -477 -19 -60 -46 -149 -60 -198
l-26 -87 -130 0 c-85 0 -129 4 -129 11 0 6 -15 94 -34 197 -81 439 -79 425
-62 495 9 35 16 80 16 100 0 20 2 37 5 37 3 0 28 -15 55 -34z"/>
</g>
</svg>
